HIERARCHY
ROOT Hips
{
	OFFSET 0.00000 0.00000 0.00000
	CHANNELS 6 Xposition Yposition Zposition Zrotation Yrotation Xrotation 
	JOINT LHipJoint
	{
		OFFSET 0 0 0
		CHANNELS 3 Zrotation Yrotation Xrotation
		JOINT LeftHip
		{
			OFFSET 1.41496 -1.84582 0.78394
			CHANNELS 3 Zrotation Yrotation Xrotation
			JOINT LeftKnee
			{
				OFFSET 2.58040 -7.08960 0.00000
				CHANNELS 3 Zrotation Yrotation Xrotation
				JOINT LeftAnkle
				{
					OFFSET 2.64719 -7.27309 0.00000
					CHANNELS 3 Zrotation Yrotation Xrotation
					JOINT LeftToe
					{
						OFFSET 0.20718 -0.56921 2.20259
						CHANNELS 3 Zrotation Yrotation Xrotation
						End Site
						{
							OFFSET 0.00000 -0.00000 1.14243
						}
					}
				}
			}
		}
	}
	JOINT RHipJoint
	{
		OFFSET 0 0 0
		CHANNELS 3 Zrotation Yrotation Xrotation
		JOINT RightHip
		{
			OFFSET -1.40551 -1.84582 0.78394
			CHANNELS 3 Zrotation Yrotation Xrotation
			JOINT RightKnee
			{
				OFFSET -2.56572 -7.04926 0.00000
				CHANNELS 3 Zrotation Yrotation Xrotation
				JOINT RightAnkle
				{
					OFFSET -2.57974 -7.08778 0.00000
					CHANNELS 3 Zrotation Yrotation Xrotation
					JOINT RightToe
					{
						OFFSET -0.26704 -0.73369 2.20815
						CHANNELS 3 Zrotation Yrotation Xrotation
						End Site
						{
							OFFSET -0.00000 -0.00000 1.16246
						}
					}
				}
			}
		}
	}
	JOINT lowerback
	{
		OFFSET 0 0 0
		CHANNELS 3 Zrotation Yrotation Xrotation
		JOINT Chest
		{
			OFFSET -0.04690 2.05196 -0.07017
			CHANNELS 3 Zrotation Yrotation Xrotation
			JOINT Chest2
			{
				OFFSET 0.04085 2.05260 0.00800
				CHANNELS 3 Zrotation Yrotation Xrotation
				JOINT lowerneck
				{
					OFFSET 0 0 0
					CHANNELS 3 Zrotation Yrotation Xrotation
					JOINT Neck
					{
						OFFSET -0.03582 1.80995 0.19301
						CHANNELS 3 Zrotation Yrotation Xrotation
						JOINT Head
						{
							OFFSET 0.00952 1.80195 -0.36389
							CHANNELS 3 Zrotation Yrotation Xrotation
							End Site
							{
								OFFSET 0.00392 1.85062 -0.14494
							}
						}
					}
				}
				JOINT LeftCollar
				{
					OFFSET 0 0 0
					CHANNELS 3 Zrotation Yrotation Xrotation
					JOINT LeftShoulder
					{
						OFFSET 3.55224 1.39726 -0.13667
CHANNELS 3 Zrotation Xrotation Yrotation
						JOINT LeftElbow
						{
OFFSET 0 -5.145070 -0.000000
CHANNELS 3 Zrotation Xrotation Yrotation
							JOINT LeftWrist
							{
OFFSET 0 -3.506460 0.000000
CHANNELS 3 Zrotation Xrotation Yrotation
								JOINT lhand
								{
									OFFSET 0 0 0
CHANNELS 3 Zrotation Xrotation Yrotation
									JOINT LFingers
									{
OFFSET 0 -0.629970 0.000000
CHANNELS 3 Zrotation Xrotation Yrotation
										End Site
										{
OFFSET 0 -0.507900 0.000000
										}
									}
								}
								JOINT LThumb
								{
OFFSET 0 0.000000 0.000000
CHANNELS 3 Zrotation Xrotation Yrotation
									End Site
									{
OFFSET 0 -0.515650 0.515650
									}
								}
							}
						}
					}
				}
				JOINT RightCollar
				{
					OFFSET 0 0 0
					CHANNELS 3 Zrotation Yrotation Xrotation
					JOINT RightShoulder
					{
						OFFSET -3.06467 1.61290 -0.28813
CHANNELS 3 Zrotation Xrotation Yrotation
						JOINT RightElbow
						{
OFFSET 0 -5.232000 -0.000000
CHANNELS 3 Zrotation Xrotation Yrotation
							JOINT RightWrist
							{
OFFSET 0 -3.656410 0.000000
CHANNELS 3 Zrotation Xrotation Yrotation
								JOINT rhand
								{
									OFFSET 0 0 0
CHANNELS 3 Zrotation Xrotation Yrotation
									JOINT RFingers
									{
OFFSET 0 -0.656810 0.000000
CHANNELS 3 Zrotation Xrotation Yrotation
										End Site
										{
OFFSET 0 -0.529530 0.000000
										}
									}
								}
								JOINT RThumb
								{
OFFSET 0 0.000000 0.000000
CHANNELS 3 Zrotation Xrotation Yrotation
									End Site
									{
OFFSET 0 -0.537620 0.537620
									}
								}
							}
						}
					}
				}
			}
		}
	}
}
MOTION
Frames: 8
Frame Time: 0.008333333333333333
-1.648842 16.837564 37.803404 6.879644 41.208619 11.660738 0.000000 0.000000 0.000000 -4.937917 -10.124049 -12.441096 4.497232 12.794203 38.602939 0.040134 3.898709 -6.997887 2.508778 -9.853732 -28.504387 0.000000 0.000000 0.000000 7.701946 -1.352149 -33.155630 -5.400263 -13.820611 42.524004 -0.529440 -0.154758 -13.805058 -0.031665 -1.147495 3.154713 -2.312065 -0.410391 19.545166 1.632253 -0.803376 2.572823 3.294307 -0.256898 -8.097028 -15.982886 -13.153173 -6.436951 16.609380 -16.690091 -3.276171 6.483903 -8.044025 2.861436 0.000000 0.000000 0.000000 3.559550 15.486048 -1.978677 38.296332 -47.027275 17.182170 21.356659 2.952057 -11.317586 0.000000 0.000000 0.000000 -7.125000 0.000000 0.000000 -5.189176 42.050852 -0.378706 0.000000 0.000000 0.000000 -4.294539 9.504693 10.307911 -21.709650 -32.647345 -6.428555 -22.998027 1.165216 11.995740 0.000000 0.000000 0.000000 7.125000 0.000000 0.000000 3.821998 42.945394 0.194096
-1.648327 16.860891 37.874611 6.880933 40.719256 11.529215 0.000000 0.000000 0.000000 -4.990952 -10.040147 -11.983889 4.470296 12.761210 38.481017 0.003403 4.291926 -6.253661 2.490735 -9.820996 -28.398962 0.000000 0.000000 0.000000 7.849837 -1.025048 -32.652090 -5.325190 -13.740834 42.209211 -0.532920 -0.137875 -13.844173 -0.035596 -1.217284 3.346940 -2.371995 -0.435974 19.350297 1.575158 -0.854929 2.505869 3.276522 -0.282094 -8.060683 -15.885258 -13.083319 -6.609652 16.477341 -16.584472 -3.148514 6.429708 -7.984675 2.888308 0.000000 0.000000 0.000000 3.485250 15.315345 -1.956832 38.103397 -46.905224 17.041109 21.227778 3.052971 -11.308757 0.000000 0.000000 0.000000 -7.125000 0.000000 0.000000 -5.302527 42.028555 -0.389919 0.000000 0.000000 0.000000 -4.211217 9.510879 10.542733 -21.739551 -32.681434 -6.444665 -23.056282 1.148848 11.999220 0.000000 0.000000 0.000000 7.125000 0.000000 0.000000 3.769994 42.955382 0.190487
-1.648483 16.883547 37.945451 6.883139 40.246635 11.403618 0.000000 0.000000 0.000000 -5.049669 -9.973293 -11.559433 4.450203 12.736526 38.390013 -0.029845 4.718016 -5.489149 2.456072 -9.757343 -28.194675 0.000000 0.000000 0.000000 7.999562 -0.705340 -32.148550 -5.250361 -13.660017 41.892829 -0.536338 -0.128568 -13.884939 -0.039772 -1.286035 3.536295 -2.418360 -0.469378 19.165021 1.516536 -0.913936 2.427489 3.251526 -0.310896 -8.041447 -15.756285 -13.014810 -6.777404 16.312552 -16.483498 -3.012425 6.360788 -7.928686 2.912063 0.000000 0.000000 0.000000 3.412966 15.178492 -1.966637 37.938140 -46.799610 16.920578 21.090709 3.150097 -11.273900 0.000000 0.000000 0.000000 -7.125000 0.000000 0.000000 -5.418811 41.978091 -0.405409 0.000000 0.000000 0.000000 -4.131806 9.530080 10.794175 -21.766885 -32.712590 -6.459431 -23.086490 1.109139 11.978198 0.000000 0.000000 0.000000 7.125000 0.000000 0.000000 3.739621 42.936042 0.190728
-1.648932 16.905910 38.016067 6.882150 39.782872 11.279469 0.000000 0.000000 0.000000 -5.107471 -9.915569 -11.152960 4.433881 12.716434 38.316024 -0.061269 5.158010 -4.715815 2.414038 -9.679535 -27.945445 0.000000 0.000000 0.000000 8.153550 -0.391043 -31.645802 -5.175239 -13.578225 41.573857 -0.539677 -0.121974 -13.925462 -0.043909 -1.351714 3.717217 -2.455606 -0.506888 18.983360 1.458188 -0.976415 2.343683 3.222535 -0.341401 -8.029864 -15.627132 -12.944152 -6.946826 16.145002 -16.380427 -2.866169 6.290884 -7.871654 2.938765 0.000000 0.000000 0.000000 3.343040 15.061291 -1.994289 37.790386 -46.704855 16.812919 20.944686 3.241550 -11.217671 0.000000 0.000000 0.000000 -7.125000 0.000000 0.000000 -5.539547 41.904197 -0.424708 0.000000 0.000000 0.000000 -4.056005 9.553977 11.055005 -21.791014 -32.740061 -6.472463 -23.100479 1.058193 11.943525 0.000000 0.000000 0.000000 7.125000 0.000000 0.000000 3.721898 42.900284 0.193120
-1.649770 16.927884 38.086372 6.876222 39.331207 11.157032 0.000000 0.000000 0.000000 -5.163406 -9.870332 -10.771149 4.422733 12.702644 38.265373 -0.090203 5.616441 -3.930733 2.362163 -9.582745 -27.636000 0.000000 0.000000 0.000000 8.313878 -0.084369 -31.144260 -5.099650 -13.495032 41.251074 -0.542899 -0.118881 -13.965480 -0.047969 -1.412804 3.885536 -2.480094 -0.549999 18.806406 1.400385 -1.043563 2.252564 3.188059 -0.374202 -8.028510 -15.500313 -12.870109 -7.119205 15.975974 -16.273778 -2.705132 6.220708 -7.812755 2.970212 0.000000 0.000000 0.000000 3.276537 14.971203 -2.046486 37.666982 -46.625271 16.723153 20.785711 3.324678 -11.131062 0.000000 0.000000 0.000000 -7.125000 0.000000 0.000000 -5.666817 41.796968 -0.449454 0.000000 0.000000 0.000000 -3.985378 9.583942 11.328749 -21.810475 -32.762164 -6.482967 -23.092102 0.992077 11.890104 0.000000 0.000000 0.000000 7.125000 0.000000 0.000000 3.721640 42.841965 0.198469
-1.651315 16.949206 38.157003 6.849285 38.888740 11.024798 0.000000 0.000000 0.000000 -5.203503 -9.833095 -10.420958 4.419585 12.698758 38.251132 -0.115109 6.094465 -3.130359 2.297227 -9.458906 -27.242198 0.000000 0.000000 0.000000 8.494943 0.229651 -30.634173 -5.022646 -13.408954 40.919800 -0.546121 -0.126618 -14.009797 -0.052029 -1.470901 4.045638 -2.491138 -0.595504 18.631520 1.348895 -1.110547 2.155458 3.152712 -0.407056 -8.034940 -15.374854 -12.792910 -7.293380 15.805041 -16.164080 -2.528910 6.150097 -7.752387 3.006394 0.000000 0.000000 0.000000 3.207422 14.907348 -2.122358 37.567525 -46.560816 16.650912 20.632069 3.412651 -11.021433 0.000000 0.000000 0.000000 -7.125000 0.000000 0.000000 -5.785325 41.666282 -0.477791 0.000000 0.000000 0.000000 -3.919105 9.619785 11.605051 -21.827160 -32.781111 -6.492002 -23.054880 0.919049 11.813824 0.000000 0.000000 0.000000 7.125000 0.000000 0.000000 3.744023 42.756053 0.207681
-1.653009 16.970199 38.227770 6.807390 38.447965 10.882631 0.000000 0.000000 0.000000 -5.233667 -9.798537 -10.082850 4.420890 12.700375 38.257081 -0.137746 6.582755 -2.325924 2.225510 -9.320223 -26.802706 0.000000 0.000000 0.000000 8.689784 0.547854 -30.116119 -4.944683 -13.321044 40.582851 -0.549381 -0.137348 -14.055622 -0.055994 -1.526371 4.198510 -2.491371 -0.641432 18.457656 1.301076 -1.175539 2.057156 3.114621 -0.439185 -8.043462 -15.250910 -12.714225 -7.468357 15.634946 -16.052898 -2.346592 6.079971 -7.691314 3.044787 0.000000 0.000000 0.000000 3.137279 14.852621 -2.207114 37.474304 -46.500241 16.583254 20.479315 3.498534 -10.887569 0.000000 0.000000 0.000000 -7.125000 0.000000 0.000000 -5.898995 41.510357 -0.509977 0.000000 0.000000 0.000000 -3.855048 9.657351 11.881183 -21.843146 -32.799269 -6.500652 -23.005294 0.844655 11.727716 0.000000 0.000000 0.000000 7.125000 0.000000 0.000000 3.776081 42.658272 0.218624
-1.654749 16.990691 38.298719 6.738696 38.007190 10.720820 0.000000 0.000000 0.000000 -5.246878 -9.766897 -9.759873 4.429396 12.710879 38.295617 -0.156692 7.087132 -1.518482 2.143219 -9.157704 -26.290338 0.000000 0.000000 0.000000 8.908689 0.872893 -29.582614 -4.865034 -13.229989 40.235966 -0.552732 -0.150494 -14.103179 -0.059732 -1.576828 4.337573 -2.471459 -0.687314 18.285341 1.259318 -1.235791 1.958626 3.070286 -0.469537 -8.053579 -15.130019 -12.633352 -7.644474 15.467722 -15.939482 -2.156299 6.011213 -7.629193 3.086415 0.000000 0.000000 0.000000 3.065814 14.808286 -2.302809 37.385505 -46.442308 16.518878 20.326333 3.577216 -10.705395 0.000000 0.000000 0.000000 -7.125000 0.000000 0.000000 -6.004871 41.303889 -0.549866 0.000000 0.000000 0.000000 -3.794410 9.696466 12.155765 -21.858677 -32.816926 -6.509030 -22.938662 0.770032 11.628026 0.000000 0.000000 0.000000 7.125000 0.000000 0.000000 3.821447 42.544083 0.232028
